<svg width="185" height="69" viewBox="0 0 185 69" fill="none" xmlns="http://www.w3.org/2000/svg">
<mask id="mask0_2805_414" style="mask-type:alpha" maskUnits="userSpaceOnUse" x="0" y="0" width="185" height="69">
<path fill-rule="evenodd" clip-rule="evenodd" d="M92.5 69C143.586 69 185 38.1076 185 0H0C0 38.1076 41.4137 69 92.5 69Z" fill="#D9D9D9"/>
</mask>
<g mask="url(#mask0_2805_414)">
<rect x="27" y="1" width="27" height="34" fill="white" stroke="black" stroke-width="2"/>
<rect x="1" y="1" width="27" height="34" fill="white" stroke="black" stroke-width="2"/>
<rect x="131" y="1" width="27" height="34" fill="white" stroke="black" stroke-width="2"/>
<rect x="53" y="1" width="27" height="34" fill="white" stroke="black" stroke-width="2"/>
<rect x="157" y="1" width="27" height="34" fill="white" stroke="black" stroke-width="2"/>
<rect x="79" y="1" width="27" height="34" fill="white" stroke="black" stroke-width="2"/>
<rect x="105" y="1" width="27" height="34" fill="white" stroke="black" stroke-width="2"/>
<rect x="27" y="34" width="27" height="34" fill="white" stroke="black" stroke-width="2"/>
<rect x="1" y="34" width="27" height="34" fill="white" stroke="black" stroke-width="2"/>
<rect x="131" y="34" width="27" height="34" fill="white" stroke="black" stroke-width="2"/>
<rect x="53" y="34" width="27" height="34" fill="white" stroke="black" stroke-width="2"/>
<rect x="157" y="34" width="27" height="34" fill="white" stroke="black" stroke-width="2"/>
<rect x="79" y="34" width="27" height="34" fill="white" stroke="black" stroke-width="2"/>
<rect x="105" y="34" width="27" height="34" fill="white" stroke="black" stroke-width="2"/>
<mask id="path-16-inside-1_2805_414" fill="white">
<path fill-rule="evenodd" clip-rule="evenodd" d="M92.5 69C143.586 69 185 38.1076 185 0H0C0 38.1076 41.4137 69 92.5 69Z"/>
</mask>
<path d="M185 0H187V-2H185V0ZM0 0V-2H-2V0H0ZM183 0C183 18.2785 173.072 34.9829 156.712 47.1873C140.35 59.3918 117.655 67 92.5 67V71C118.432 71 141.986 63.1621 159.103 50.3935C176.221 37.6247 187 19.8292 187 0H183ZM185 -2H0V2H185V-2ZM92.5 67C67.3452 67 44.6496 59.3918 28.2885 47.1873C11.9276 34.9829 2 18.2785 2 0H-2C-2 19.8292 8.77927 37.6247 25.8968 50.3935C43.0141 63.1621 66.5685 71 92.5 71V67Z" fill="black" mask="url(#path-16-inside-1_2805_414)"/>
</g>
</svg>
